<?xml version="1.0" standalone="no"?>
<!DOCTYPE svg PUBLIC "-//W3C//DTD SVG 20010904//EN"
 "http://www.w3.org/TR/2001/REC-SVG-20010904/DTD/svg10.dtd">
<svg version="1.0" xmlns="http://www.w3.org/2000/svg"
 width="970.000000pt" height="546.000000pt" viewBox="0 0 970.000000 546.000000"
 preserveAspectRatio="xMidYMid meet">

<g transform="translate(0.000000,546.000000) scale(0.100000,-0.100000)"
fill="#000000" stroke="none">
<path d="M4310 3513 c-190 -18 -263 -39 -373 -106 -41 -25 -95 -54 -120 -65
-25 -11 -73 -42 -106 -69 -33 -26 -83 -66 -110 -87 -28 -22 -51 -42 -51 -46 0
-4 -34 -35 -75 -70 -41 -34 -91 -86 -110 -114 -20 -28 -48 -67 -63 -87 -36
-48 -52 -78 -133 -241 -76 -153 -106 -243 -145 -433 -23 -114 -25 -145 -20
-250 3 -66 14 -167 24 -225 11 -58 15 -107 10 -108 -9 -4 9 -32 21 -32 4 0 -3
60 -16 133 -47 283 -39 403 44 687 33 113 215 472 252 500 4 3 21 26 39 51 17
25 58 70 92 99 33 29 88 79 122 111 34 33 67 59 73 59 6 0 27 16 46 36 18 20
66 52 104 71 39 19 103 54 144 78 40 23 96 50 125 59 78 24 320 49 396 41 173
-18 229 -24 270 -29 43 -6 43 -5 -10 8 -104 27 -312 41 -430 29z"/>
<path d="M4801 3476 c2 -2 43 -15 91 -29 97 -27 239 -102 338 -177 61 -46 88
-61 76 -41 -10 15 -178 126 -256 168 -77 42 -275 105 -249 79z"/>
<path d="M5361 3170 c23 -28 63 -67 88 -87 36 -28 28 -17 -34 49 -88 94 -121
117 -54 38z"/>
<path d="M5521 2996 c19 -26 60 -76 91 -111 34 -38 77 -103 107 -162 55 -107
100 -184 101 -168 0 6 -12 30 -26 55 -15 25 -47 85 -72 135 -25 49 -64 107
-86 130 -23 22 -58 63 -78 91 -21 28 -45 58 -55 65 -9 8 -1 -8 18 -35z"/>
<path d="M5821 2533 c-1 -7 10 -46 24 -86 35 -105 53 -222 65 -422 14 -239 1
-343 -59 -483 -18 -41 -31 -78 -29 -84 2 -6 22 37 45 94 57 146 68 240 54 479
-11 197 -37 353 -76 452 -13 34 -24 56 -24 50z"/>
<path d="M2480 1826 c-84 -48 -131 -148 -99 -208 9 -17 7 -24 -14 -44 l-26
-24 -30 30 c-17 18 -39 29 -53 29 -23 -2 -23 -2 -1 -6 30 -6 74 -59 66 -81 -3
-9 12 2 33 26 l39 43 42 -21 c23 -12 63 -23 89 -25 51 -4 132 11 149 28 7 6 2
7 -15 2 -47 -13 -158 -17 -192 -6 -18 6 -46 23 -62 37 -24 23 -27 32 -23 65 8
60 54 120 120 154 60 31 78 29 101 -8 13 -21 -7 -62 -43 -86 -23 -15 -23 -14
-16 8 5 16 4 21 -4 17 -17 -11 -13 -46 5 -46 8 0 38 7 66 17 41 13 57 14 82 5
18 -7 44 -12 58 -12 45 0 141 -35 202 -74 32 -20 60 -35 63 -32 5 5 -122 81
-163 96 -43 17 -143 33 -206 33 -53 1 -56 2 -43 17 22 25 19 66 -7 84 -32 22
-55 19 -118 -18z"/>
<path d="M2165 1591 c-44 -26 -75 -66 -118 -151 -24 -49 -40 -95 -44 -131 -5
-51 -8 -57 -36 -67 -39 -15 -30 -26 10 -12 28 10 31 16 36 68 4 39 20 84 48
141 47 92 96 146 143 160 21 6 24 9 11 10 -11 1 -34 -7 -50 -18z"/>
<path d="M5775 1361 c-142 -244 -226 -334 -454 -485 -163 -109 -199 -125 -336
-145 -258 -38 -337 -44 -523 -37 -411 14 -531 29 -663 80 -149 57 -246 101
-293 131 -73 46 -186 154 -231 219 -43 63 -62 68 -21 6 42 -64 177 -193 244
-235 61 -37 154 -79 302 -135 89 -33 233 -60 328 -60 37 0 112 -5 167 -10 135
-14 386 -14 460 -2 33 6 92 14 130 17 125 12 239 36 290 62 123 63 311 201
402 294 76 79 249 336 241 359 -2 6 -21 -21 -43 -59z"/>
<path d="M3090 1354 c-23 -53 -24 -64 -9 -64 5 0 7 4 4 10 -8 12 26 71 37 64
4 -3 28 -43 54 -90 25 -47 48 -83 51 -81 5 6 -35 86 -52 103 -7 7 -19 33 -26
58 -7 26 -19 46 -26 46 -7 0 -21 -21 -33 -46z"/>
<path d="M2205 1335 c-40 -20 -54 -45 -65 -113 -13 -77 -35 -95 -110 -90 -30
2 -64 8 -75 12 -20 8 -20 7 -1 -8 13 -11 40 -16 82 -16 82 0 101 16 115 97 12
68 43 113 79 113 27 0 87 -59 134 -132 36 -53 37 -57 23 -85 -31 -59 -128
-305 -125 -315 2 -6 25 45 52 113 26 68 61 147 76 176 l27 52 -46 69 c-25 38
-66 86 -89 106 -24 20 -45 36 -45 36 -1 0 -16 -7 -32 -15z"/>
<path d="M3100 1288 c0 -2 9 -21 20 -43 11 -22 20 -50 20 -62 0 -51 -102 -128
-195 -147 -36 -7 -44 -2 -73 46 -23 36 -23 37 -3 47 11 6 35 11 54 11 22 0 41
8 55 23 22 23 29 61 14 71 -4 2 -36 -13 -71 -34 -68 -41 -193 -80 -257 -80
-34 0 -44 -6 -86 -53 -25 -28 -65 -72 -87 -97 -54 -59 -121 -191 -121 -238 0
-23 -8 -44 -22 -59 -12 -13 -16 -23 -10 -23 17 0 42 42 42 72 0 73 71 192 188
316 63 66 72 72 108 72 61 0 183 37 247 76 66 39 67 39 67 21 0 -26 -45 -57
-81 -57 -19 0 -44 -6 -55 -14 -19 -14 -19 -15 0 -48 45 -78 60 -82 161 -42
114 46 156 114 121 198 -11 27 -36 57 -36 44z"/>
<path d="M1932 1185 c0 -16 2 -22 5 -12 2 9 2 23 0 30 -3 6 -5 -1 -5 -18z"/>
<path d="M2251 759 c-1 -18 -21 -29 -51 -29 -27 0 -44 -34 -30 -60 20 -38 86
-52 135 -29 14 6 7 8 -26 4 -65 -8 -101 8 -97 42 2 22 10 29 36 34 40 8 45 12
39 36 -4 15 -5 15 -6 2z"/>
</g>
</svg>
